<?xml version="1.0" standalone="no"?>
<!DOCTYPE svg PUBLIC "-//W3C//DTD SVG 20010904//EN"
 "http://www.w3.org/TR/2001/REC-SVG-20010904/DTD/svg10.dtd">
<svg version="1.0" xmlns="http://www.w3.org/2000/svg"
 width="919.000000pt" height="255.000000pt" viewBox="0 0 919.000000 255.000000"
 preserveAspectRatio="xMidYMid meet">

<g transform="translate(0.000000,255.000000) scale(0.100000,-0.100000)"
fill="#000000" stroke="none">
<path d="M1955 2346 c-77 -34 -1844 -1062 -1873 -1089 -93 -89 -75 -315 40
-512 82 -139 146 -190 500 -393 339 -195 372 -212 415 -212 19 0 341 181 953
534 728 420 930 541 948 567 63 89 -25 304 -159 391 -27 17 -49 34 -49 37 0 3
43 30 96 59 l95 54 -3 51 -3 51 -370 214 c-203 118 -395 225 -425 238 -62 26
-120 30 -165 10z m174 -117 c61 -27 691 -391 691 -398 0 -6 -1694 -986 -1715
-993 -6 -2 -189 100 -408 226 -327 189 -395 231 -380 239 10 6 369 213 797
460 428 247 797 458 820 468 55 25 139 24 195 -2z m609 -673 c80 -48 124 -110
130 -182 4 -49 2 -54 -34 -93 -29 -30 -261 -169 -863 -516 -453 -262 -825
-474 -826 -473 -1 2 -10 28 -19 59 -18 66 -83 167 -131 206 -18 16 -112 73
-207 128 -95 55 -213 123 -261 151 l-89 52 96 56 96 57 234 -135 234 -136 769
444 c683 395 770 443 788 432 11 -7 48 -29 83 -50z m-2447 -370 c24 -7 91 -41
147 -74 l104 -60 -96 -57 -96 -56 0 -52 0 -52 310 -178 c309 -179 348 -207
377 -274 33 -81 -1 -148 -64 -125 -16 5 -170 91 -343 191 -268 154 -324 190
-372 241 -172 179 -200 455 -52 500 40 11 36 12 85 -4z"/>
<path d="M1626 1901 c-380 -213 -385 -216 -363 -233 12 -10 34 -22 49 -29 26
-10 53 3 408 202 209 118 380 216 380 219 0 3 -20 17 -44 32 l-43 26 -387
-217z"/>
<path d="M1826 1790 c-202 -114 -373 -213 -378 -218 -7 -7 5 -19 35 -36 l45
-27 387 217 387 217 -46 29 c-25 15 -49 28 -53 27 -5 0 -174 -95 -377 -209z"/>
<path d="M2008 1667 c-208 -117 -378 -214 -378 -217 0 -3 21 -17 46 -31 l46
-26 381 214 c210 118 383 216 385 218 6 6 -76 55 -90 55 -7 -1 -183 -96 -390
-213z"/>
<path d="M882 1484 l-243 -137 233 -139 c128 -77 238 -142 244 -145 8 -3 477
251 502 272 5 4 -470 285 -482 285 -6 0 -120 -62 -254 -136z"/>
<path d="M1898 1023 l-737 -426 31 -44 c21 -31 35 -43 46 -38 34 13 1428 821
1452 842 29 25 23 43 -25 73 l-30 19 -737 -426z"/>
<path d="M3483 1840 c-101 -51 -156 -136 -156 -240 0 -109 71 -191 227 -264
106 -49 146 -82 146 -121 0 -60 -38 -86 -125 -86 -55 0 -100 16 -176 62 -27
17 -52 30 -53 28 -12 -13 -96 -158 -96 -165 0 -15 100 -70 170 -95 74 -25 226
-31 295 -11 75 21 146 73 177 128 37 68 47 157 24 218 -23 59 -106 135 -194
176 -173 81 -196 99 -190 145 8 70 103 87 222 40 37 -15 69 -25 71 -23 1 1 19
37 40 77 l37 75 -21 17 c-47 38 -133 62 -236 66 -96 4 -102 3 -162 -27z"/>
<path d="M6073 1840 c-101 -51 -155 -132 -156 -235 -1 -114 67 -194 227 -269
106 -49 146 -82 146 -121 0 -60 -38 -86 -125 -86 -55 0 -100 16 -176 62 -27
17 -52 30 -53 28 -12 -13 -96 -158 -96 -165 0 -15 100 -70 170 -95 74 -25 226
-31 295 -11 75 21 146 73 177 128 37 68 47 157 24 218 -23 59 -106 135 -194
176 -173 81 -196 99 -190 145 8 70 103 87 222 40 37 -15 69 -25 71 -23 1 1 19
37 40 77 l37 75 -21 17 c-47 38 -133 62 -236 66 -96 4 -102 3 -162 -27z"/>
<path d="M4012 1518 c5 -383 7 -398 75 -477 126 -147 455 -143 570 7 59 78 63
108 63 479 l0 333 -100 0 c-55 0 -101 -1 -102 -2 0 -2 -4 -147 -7 -323 -7
-349 -8 -357 -67 -383 -35 -17 -120 -15 -154 3 -62 32 -65 48 -68 393 l-3 312
-105 0 -105 0 3 -342z"/>
<path d="M4870 1848 c0 -19 -68 -783 -75 -845 l-6 -53 105 0 c84 0 106 3 106
14 0 21 40 510 43 518 1 5 35 -88 76 -205 41 -116 83 -236 93 -264 l19 -53 64
0 c62 0 63 0 74 33 7 17 46 131 88 252 42 121 79 224 83 228 4 4 14 -93 24
-215 9 -123 19 -242 22 -265 l6 -43 104 0 c103 0 104 0 100 23 -3 12 -22 217
-43 455 l-37 432 -111 0 -110 0 -99 -260 c-55 -143 -101 -258 -103 -256 -2 2
-48 118 -102 257 l-97 254 -112 3 c-87 2 -112 0 -112 -10z"/>
<path d="M6616 1814 c-3 -26 -6 -231 -6 -455 l0 -409 105 0 105 0 2 280 3 280
179 -280 179 -280 104 0 103 0 0 455 0 455 -105 0 -105 0 -2 -277 -3 -277
-176 275 -175 274 -101 3 -100 3 -7 -47z"/>
<path d="M7781 1838 c-31 -80 -353 -873 -357 -880 -3 -4 46 -8 108 -8 l114 0
33 90 33 90 173 0 173 0 33 -90 32 -90 112 0 112 0 -134 333 c-74 182 -156
386 -183 452 l-48 120 -96 3 c-92 3 -97 2 -105 -20z m160 -405 c23 -62 40
-116 37 -118 -3 -3 -48 -4 -100 -3 l-94 3 49 128 c30 75 53 123 58 116 4 -7
26 -63 50 -126z"/>
<path d="M8380 1406 l0 -456 105 0 105 0 0 170 0 170 100 0 c205 0 317 90 328
264 8 135 -34 213 -145 268 l-68 33 -212 3 -213 4 0 -456z m354 270 c46 -19
66 -52 66 -107 0 -77 -59 -119 -167 -119 l-43 0 0 120 0 120 55 0 c31 0 71 -6
89 -14z"/>
</g>
</svg>
